<svg xmlns="http://www.w3.org/2000/svg" version="1.1" xmlns:xlink="http://www.w3.org/1999/xlink" xmlns:svgjs="http://svgjs.dev/svgjs" width="2000" height="1500" viewBox="0 0 2000 1500"><rect width="2000" height="1500" fill="#f2ff00"></rect><g transform="matrix(0.75,0,0,0.75,250.25491573033696,491.8862195121951)"><svg viewBox="0 0 356 123" data-background-color="#f2ff00" preserveAspectRatio="xMidYMid meet" height="691" width="2000" xmlns="http://www.w3.org/2000/svg" xmlns:xlink="http://www.w3.org/1999/xlink"><g id="tight-bounds" transform="matrix(1,0,0,1,-0.06049999999996203,-0.2400000000000091)"><svg viewBox="0 0 356.12052 123.47989009371182" height="123.47989009371182" width="356.12052"><g><svg viewBox="0 0 356.12052 123.47989009371182" height="123.47989009371182" width="356.12052"><g><svg viewBox="0 0 356.12052 123.47989009371182" height="123.47989009371182" width="356.12052"><g><path d="M0 123.48v-123.48h356.121v123.48z" fill="#75a206" stroke="transparent" stroke-width="0" rx="0%" data-fill-palette-color="tertiary"></path><path d="M3.283 120.197v-116.914h349.554v116.914z" fill="#f2ff00" stroke="transparent" stroke-width="0" rx="0%" data-fill-palette-color="quaternary"></path><path d="M9.85 113.63v-103.78h336.421v103.78z" fill="#75a206" stroke="transparent" stroke-width="0" data-fill-palette-color="tertiary"></path></g><g transform="matrix(1,0,0,1,19.69974,19.69974)" id="textblocktransform"><svg viewBox="0 0 316.72104 84.08041009371182" height="84.08041009371182" width="316.72104" id="textblock"><g><svg viewBox="0 0 316.72104 84.08041009371182" height="84.08041009371182" width="316.72104"><g transform="matrix(1,0,0,1,0,0)"><svg width="316.72104" viewBox="1.98 -35.3 134.809387730944 35.79" height="84.08041009371182" data-palette-color="#f2ff00"><path d="M7.84 0L7.84 0 2.17 0Q1.98 0 1.98-0.24L1.98-0.24 2.08-34.59Q2.08-34.79 2.27-34.79L2.27-34.79 8.37-34.79Q8.57-34.79 8.72-34.59L8.72-34.59 13.28-28 17.82-34.59Q17.97-34.79 18.19-34.79L18.19-34.79 24.32-34.79Q24.54-34.79 24.54-34.59L24.54-34.59 24.63-0.24Q24.63 0 24.44 0L24.44 0 18.77 0Q18.58 0 18.58-0.24L18.58-0.24 18.53-25.76 13.28-18.14 8.08-25.76 8.03-0.24Q8.03 0 7.84 0ZM38.01 0.49L38.01 0.49Q35.37 0.49 33.13-0.88L33.13-0.88Q30.88-2.25 29.55-4.55 28.22-6.86 28.22-9.59L28.22-9.59 28.32-34.59Q28.32-34.79 28.51-34.79L28.51-34.79 34.13-34.79Q34.32-34.79 34.32-34.59L34.32-34.59 34.32-9.59Q34.32-7.91 35.4-6.73 36.47-5.54 38.01-5.54L38.01-5.54Q39.62-5.54 40.7-6.73 41.77-7.91 41.77-9.59L41.77-9.59 41.77-34.59Q41.77-34.79 41.97-34.79L41.97-34.79 47.58-34.79Q47.78-34.79 47.78-34.59L47.78-34.59 47.87-9.59Q47.87-6.84 46.56-4.52L46.56-4.52Q45.21-2.22 42.99-0.87 40.77 0.49 38.01 0.49ZM60.3 0.49L60.3 0.49Q57.64 0.49 55.39-0.88L55.39-0.88Q53.17-2.25 51.84-4.53 50.51-6.81 50.51-9.55L50.51-9.55 50.51-11.84Q50.51-12.11 50.75-12.11L50.75-12.11 56.37-12.11Q56.56-12.11 56.56-11.84L56.56-11.84 56.56-9.55Q56.56-7.91 57.66-6.73 58.76-5.54 60.3-5.54L60.3-5.54Q61.86-5.54 62.96-6.75 64.06-7.96 64.06-9.55L64.06-9.55Q64.06-11.38 61.66-12.74L61.66-12.74Q61.27-12.99 60.65-13.34 60.03-13.7 59.17-14.16L59.17-14.16Q58.32-14.62 57.51-15.08 56.71-15.53 55.95-15.94L55.95-15.94Q53.22-17.55 51.89-19.98 50.56-22.41 50.56-25.44L50.56-25.44Q50.56-28.22 51.92-30.47L51.92-30.47Q53.29-32.69 55.5-34 57.71-35.3 60.3-35.3L60.3-35.3Q62.96-35.3 65.18-33.98L65.18-33.98Q67.4-32.64 68.73-30.42 70.06-28.2 70.06-25.44L70.06-25.44 70.06-21.34Q70.06-21.14 69.87-21.14L69.87-21.14 64.25-21.14Q64.06-21.14 64.06-21.34L64.06-21.34 64.01-25.44Q64.01-27.2 62.91-28.3 61.81-29.39 60.3-29.39L60.3-29.39Q58.76-29.39 57.66-28.22 56.56-27.05 56.56-25.44L56.56-25.44Q56.56-23.8 57.26-22.71 57.95-21.61 59.81-20.61L59.81-20.61Q60-20.51 60.71-20.12 61.42-19.73 62.29-19.25 63.15-18.77 63.86-18.4 64.57-18.02 64.72-17.94L64.72-17.94Q67.21-16.55 68.66-14.53 70.11-12.5 70.11-9.55L70.11-9.55Q70.11-6.69 68.79-4.42L68.79-4.42Q67.45-2.15 65.23-0.83 63.01 0.49 60.3 0.49ZM89.93 0L89.93 0 73.77 0Q73.58 0 73.58-0.24L73.58-0.24 73.63-34.59Q73.63-34.79 73.82-34.79L73.82-34.79 89.89-34.79Q90.08-34.79 90.08-34.55L90.08-34.55 90.08-28.96Q90.08-28.76 89.89-28.76L89.89-28.76 79.63-28.76 79.63-20.95 89.89-20.95Q90.08-20.95 90.08-20.75L90.08-20.75 90.13-15.09Q90.13-14.89 89.93-14.89L89.93-14.89 79.63-14.89 79.63-6.15 89.93-6.15Q90.13-6.15 90.13-5.91L90.13-5.91 90.13-0.2Q90.13 0 89.93 0ZM110.93 0L110.93 0 94.77 0Q94.57 0 94.57-0.24L94.57-0.24 94.62-34.59Q94.62-34.79 94.81-34.79L94.81-34.79 110.88-34.79Q111.07-34.79 111.07-34.55L111.07-34.55 111.07-28.96Q111.07-28.76 110.88-28.76L110.88-28.76 100.62-28.76 100.62-20.95 110.88-20.95Q111.07-20.95 111.07-20.75L111.07-20.75 111.12-15.09Q111.12-14.89 110.93-14.89L110.93-14.89 100.62-14.89 100.62-6.15 110.93-6.15Q111.12-6.15 111.12-5.91L111.12-5.91 111.12-0.2Q111.12 0 110.93 0ZM121.42 0L121.42 0 115.76 0Q115.56 0 115.56-0.24L115.56-0.24 115.66-34.55Q115.66-34.79 115.86-34.79L115.86-34.79 121.47-34.79Q121.67-34.79 121.67-34.55L121.67-34.55 121.67-22.71 129.5-34.59Q129.7-34.79 129.87-34.79L129.87-34.79 135.61-34.79Q135.83-34.79 135.71-34.59L135.71-34.59 127.06-20.8 136.76-0.2Q136.88 0 136.51 0L136.51 0 130.41 0Q130.16 0 130.11-0.2L130.11-0.2 123.35-14.89 121.62-12.16 121.62-0.24Q121.62 0 121.42 0Z" opacity="1" transform="matrix(1,0,0,1,0,0)" fill="#f2ff00" class="wordmark-text-0" data-fill-palette-color="quaternary" id="text-0"></path></svg></g></svg></g></svg></g></svg></g><g></g></svg></g><defs></defs></svg><rect width="356.12052" height="123.47989009371182" fill="none" stroke="none" visibility="hidden"></rect></g></svg></g></svg>