<svg xmlns="http://www.w3.org/2000/svg" version="1.1" xmlns:xlink="http://www.w3.org/1999/xlink" xmlns:svgjs="http://svgjs.dev/svgjs" width="2000" height="1500" viewBox="0 0 2000 1500"><rect width="2000" height="1500" fill="#000000"></rect><g transform="matrix(0.75,0,0,0.75,249.9865236173864,72.1758853500553)"><svg viewBox="0 0 273 247" data-background-color="#000000" preserveAspectRatio="xMidYMid meet" height="1809" width="2000" xmlns="http://www.w3.org/2000/svg" xmlns:xlink="http://www.w3.org/1999/xlink"><g id="tight-bounds" transform="matrix(1,0,0,1,0.0024527016356614695,-0.10007915888590446)"><svg viewBox="0 0 272.9950945967287 247.2" height="247.2" width="272.9950945967287"><rect width="272.9950945967287" height="247.20036932395953" fill="url(#a94e7116-45c7-4141-944e-70ef723c2930)" mask="url(#6a2b388b-8c9d-4603-96e6-d2a3d982ea58)" data-fill-palette-color="tertiary"></rect><g><svg viewBox="0 0 272.9950945967287 247.2" height="247.2" width="272.9950945967287"><g><svg viewBox="0 0 272.9950945967287 247.2" height="247.2" width="272.9950945967287"><g id="textblocktransform"><svg viewBox="0 0 272.9950945967287 247.2" height="247.2" width="272.9950945967287" id="textblock"><g><svg viewBox="0 0 272.9950945967287 247.2" height="247.2" width="272.9950945967287"><path d="M272.356 53.02C271.073 27.36 267.415 20.227 267.415 20.227 256.185-6.202 242.17-0.506 229.58 3.292 207.351 3.446 185.213 9.091 163.035 12.119 116.486 12.581 69.539 4.986 23.221 23.717 18.87 29.464-4.514 24.846 0.774 56.304 2.16 69.39 7.217 83.913 7.063 95.922 7.756 98.026 8.718 93.202 9.129 96.23 10.566 104.39 12.915 100.541 14.84 105.365 12.158 118.246 14.083 128.971 15.918 140.21 12.684 143.135 8.539 141.749 6.678 151.449 6.485 158.479 5.445 157.145 4.303 156.837 3.469 156.632 1.788 157.402 2.07 159.608 3.033 167.152-1.1 171.514 1.493 178.904-0.291 186.91 2.725 193.838 2.314 202.511 2.263 204.255 2.545 205.744 2.994 206.154 4.983 208.361 2.083 212.672 2.391 217.342 22.797 249.262 44.936 227.195 65.843 241.872 71.272 231.608 67.19 245.516 69.359 243.36 71.053 240.846 72.285 251.263 74.198 245.362 74.493 243.668 74.044 239.665 75.096 240.435 75.648 240.846 76.136 240.743 76.213 238.382 76.328 234.841 75.314 237.048 75.045 235.201 77.958 225.861 77.239 248.081 79.973 247.158 79.845 244.438 79.049 240.538 80.679 241.051 82.296 237.151 82.347 233.918 83.785 242.693 83.836 244.592 84.093 245.926 84.503 246.85 88.995 237.305 93.462 250.237 98.172 245.926 101.059 241.205 103.832 248.492 106.758 246.696 107.784 245.259 108.824 242.693 109.812 247.004 121.915 247.928 134.813 244.079 146.287 247.158 176.947 241.41 209.713 249.518 242.042 241.923 249.665 238.998 257.584 234.841 265.015 231.506 265.015 231.506 271.034 222.371 271.034 181.316S272.317 145.393 272.51 112.703C272.702 80.013 273.601 78.679 272.317 53.02Z" opacity="1" fill="url(#a94e7116-45c7-4141-944e-70ef723c2930)" data-fill-palette-color="tertiary"></path><g transform="matrix(1,0,0,1,55.76831999999999,26.230666666666668)"><svg width="161.4584545967287" viewBox="1.25 -29.55 24.5 29.55" height="194.73866666666666" data-palette-color="#000000"><path d="M8.2 0L1.25 0 1.25-29.55 11.35-29.55 13.5-14.45 15.65-29.55 25.75-29.55 25.75 0 18.8 0 18.8-20.6 16.15 0 10.85 0 8.2-20.6 8.2 0ZM4.45-15L4.65-2.35 4.85-2.35 5.1-15 4.9-27.35 4.7-27.35 4.45-15ZM22-15L22.2-2.35 22.4-2.35 22.65-15 22.45-27.35 22.25-27.35 22-15ZM13.5-2.35L13.5-2.35 14.2-5.95Q14.35-6.75 14.53-7.68 14.7-8.6 14.9-9.6L14.9-9.6 15.7-13.9Q16.1-16.2 16.5-18.48 16.9-20.75 17.25-22.6L17.25-22.6 18-26.7 17.9-26.7 15.2-13.95 13.5-3.05 12.95-6.5Q12.7-8.05 12.38-9.98 12.05-11.9 11.7-13.9L11.7-13.9Q11.3-16.15 10.88-18.43 10.45-20.7 10.05-22.55L10.05-22.55 9.15-26.75 9.05-26.75 9.75-22.6Q10.05-20.75 10.43-18.45 10.8-16.15 11.2-13.85L11.2-13.85Q11.55-11.7 11.95-9.68 12.35-7.65 12.7-6.05L12.7-6.05Q13-4.8 13.25-3.7 13.5-2.6 13.5-2.35Z" opacity="1" transform="matrix(1,0,0,1,0,0)" fill="#000000" class="wordmark-text-0" data-fill-palette-color="quaternary" id="text-0"></path></svg></g></svg></g></svg></g></svg></g><g></g></svg></g><defs></defs><mask id="6a2b388b-8c9d-4603-96e6-d2a3d982ea58"><g id="SvgjsG3150"><svg viewBox="0 0 272.9950945967287 247.2" height="247.2" width="272.9950945967287"><g><svg viewBox="0 0 272.9950945967287 247.2" height="247.2" width="272.9950945967287"><g><svg viewBox="0 0 272.9950945967287 247.2" height="247.2" width="272.9950945967287"><g id="SvgjsG3149"><svg viewBox="0 0 272.9950945967287 247.2" height="247.2" width="272.9950945967287" id="SvgjsSvg3148"><g><svg viewBox="0 0 272.9950945967287 247.2" height="247.2" width="272.9950945967287"><path d="M272.356 53.02C271.073 27.36 267.415 20.227 267.415 20.227 256.185-6.202 242.17-0.506 229.58 3.292 207.351 3.446 185.213 9.091 163.035 12.119 116.486 12.581 69.539 4.986 23.221 23.717 18.87 29.464-4.514 24.846 0.774 56.304 2.16 69.39 7.217 83.913 7.063 95.922 7.756 98.026 8.718 93.202 9.129 96.23 10.566 104.39 12.915 100.541 14.84 105.365 12.158 118.246 14.083 128.971 15.918 140.21 12.684 143.135 8.539 141.749 6.678 151.449 6.485 158.479 5.445 157.145 4.303 156.837 3.469 156.632 1.788 157.402 2.07 159.608 3.033 167.152-1.1 171.514 1.493 178.904-0.291 186.91 2.725 193.838 2.314 202.511 2.263 204.255 2.545 205.744 2.994 206.154 4.983 208.361 2.083 212.672 2.391 217.342 22.797 249.262 44.936 227.195 65.843 241.872 71.272 231.608 67.19 245.516 69.359 243.36 71.053 240.846 72.285 251.263 74.198 245.362 74.493 243.668 74.044 239.665 75.096 240.435 75.648 240.846 76.136 240.743 76.213 238.382 76.328 234.841 75.314 237.048 75.045 235.201 77.958 225.861 77.239 248.081 79.973 247.158 79.845 244.438 79.049 240.538 80.679 241.051 82.296 237.151 82.347 233.918 83.785 242.693 83.836 244.592 84.093 245.926 84.503 246.85 88.995 237.305 93.462 250.237 98.172 245.926 101.059 241.205 103.832 248.492 106.758 246.696 107.784 245.259 108.824 242.693 109.812 247.004 121.915 247.928 134.813 244.079 146.287 247.158 176.947 241.41 209.713 249.518 242.042 241.923 249.665 238.998 257.584 234.841 265.015 231.506 265.015 231.506 271.034 222.371 271.034 181.316S272.317 145.393 272.51 112.703C272.702 80.013 273.601 78.679 272.317 53.02Z" opacity="1" fill="white"></path><g transform="matrix(1,0,0,1,55.76831999999999,26.230666666666668)"><svg width="161.4584545967287" viewBox="1.25 -29.55 24.5 29.55" height="194.73866666666666" data-palette-color="#000000"><path d="M8.2 0L1.25 0 1.25-29.55 11.35-29.55 13.5-14.45 15.65-29.55 25.75-29.55 25.75 0 18.8 0 18.8-20.6 16.15 0 10.85 0 8.2-20.6 8.2 0ZM4.45-15L4.65-2.35 4.85-2.35 5.1-15 4.9-27.35 4.7-27.35 4.45-15ZM22-15L22.2-2.35 22.4-2.35 22.65-15 22.45-27.35 22.25-27.35 22-15ZM13.5-2.35L13.5-2.35 14.2-5.95Q14.35-6.75 14.53-7.68 14.7-8.6 14.9-9.6L14.9-9.6 15.7-13.9Q16.1-16.2 16.5-18.48 16.9-20.75 17.25-22.6L17.25-22.6 18-26.7 17.9-26.7 15.2-13.95 13.5-3.05 12.95-6.5Q12.7-8.05 12.38-9.98 12.05-11.9 11.7-13.9L11.7-13.9Q11.3-16.15 10.88-18.43 10.45-20.7 10.05-22.55L10.05-22.55 9.15-26.75 9.05-26.75 9.75-22.6Q10.05-20.75 10.43-18.45 10.8-16.15 11.2-13.85L11.2-13.85Q11.55-11.7 11.95-9.68 12.35-7.65 12.7-6.05L12.7-6.05Q13-4.8 13.25-3.7 13.5-2.6 13.5-2.35Z" opacity="1" transform="matrix(1,0,0,1,0,0)" fill="black" class="wordmark-text-0" id="SvgjsPath3147"></path></svg></g></svg></g></svg></g></svg></g><g></g></svg></g><defs><mask></mask></defs></svg><rect width="272.9950945967287" height="247.2" fill="black" stroke="none" visibility="hidden"></rect></g></mask><linearGradient x1="0" x2="1" y1="0.578" y2="0.595" id="a94e7116-45c7-4141-944e-70ef723c2930"><stop stop-color="#6ee2f5" offset="0"></stop><stop stop-color="#6454f0" offset="1"></stop></linearGradient></svg><rect width="272.9950945967287" height="247.2" fill="none" stroke="none" visibility="hidden"></rect></g></svg></g></svg>